<mxfile host="app.diagrams.net" modified="2023-11-11T12:56:22.347Z" agent="Mozilla/5.0 (Windows NT 10.0; Win64; x64) AppleWebKit/537.36 (KHTML, like Gecko) Chrome/119.0.0.0 Safari/537.36 Edg/119.0.0.0" etag="mGrETThQEIilLcK9KEMd" version="22.1.0" type="github">
  <diagram name="Page-1" id="DAIVOXVsl8LXuOjcO-Ce">
    <mxGraphModel dx="890" dy="497" grid="1" gridSize="10" guides="1" tooltips="1" connect="1" arrows="1" fold="1" page="1" pageScale="1" pageWidth="850" pageHeight="1100" math="0" shadow="0">
      <root>
        <mxCell id="0" />
        <mxCell id="1" parent="0" />
        <mxCell id="BZ6oP5d7F09XDa9WED_i-2" value="Điều kiện 1 (If)" style="rhombus;whiteSpace=wrap;html=1;fillColor=#f8cecc;strokeColor=#b85450;" vertex="1" parent="1">
          <mxGeometry x="150" y="210" width="140" height="80" as="geometry" />
        </mxCell>
        <mxCell id="BZ6oP5d7F09XDa9WED_i-3" value="Kết thúc chương trình" style="ellipse;whiteSpace=wrap;html=1;fillColor=#fff2cc;strokeColor=#d6b656;" vertex="1" parent="1">
          <mxGeometry x="580" y="320" width="120" height="80" as="geometry" />
        </mxCell>
        <mxCell id="BZ6oP5d7F09XDa9WED_i-4" value="" style="endArrow=classic;html=1;rounded=0;exitX=1;exitY=0.5;exitDx=0;exitDy=0;" edge="1" parent="1" source="BZ6oP5d7F09XDa9WED_i-2">
          <mxGeometry width="50" height="50" relative="1" as="geometry">
            <mxPoint x="270" y="310" as="sourcePoint" />
            <mxPoint x="370" y="250" as="targetPoint" />
          </mxGeometry>
        </mxCell>
        <mxCell id="BZ6oP5d7F09XDa9WED_i-5" value="Nhập thông tin" style="shape=parallelogram;perimeter=parallelogramPerimeter;whiteSpace=wrap;html=1;fixedSize=1;fillColor=#d5e8d4;strokeColor=#82b366;" vertex="1" parent="1">
          <mxGeometry x="160" y="100" width="120" height="60" as="geometry" />
        </mxCell>
        <mxCell id="BZ6oP5d7F09XDa9WED_i-7" value="" style="endArrow=classic;html=1;rounded=0;exitX=0.5;exitY=1;exitDx=0;exitDy=0;entryX=0.488;entryY=-0.04;entryDx=0;entryDy=0;entryPerimeter=0;" edge="1" parent="1" source="BZ6oP5d7F09XDa9WED_i-5" target="BZ6oP5d7F09XDa9WED_i-2">
          <mxGeometry width="50" height="50" relative="1" as="geometry">
            <mxPoint x="260" y="230" as="sourcePoint" />
            <mxPoint x="310" y="180" as="targetPoint" />
          </mxGeometry>
        </mxCell>
        <mxCell id="BZ6oP5d7F09XDa9WED_i-8" value="Thực hiện code ở đây nếu đúng điều kiện 1" style="rounded=0;whiteSpace=wrap;html=1;fillColor=#d5e8d4;strokeColor=#82b366;" vertex="1" parent="1">
          <mxGeometry x="370" y="220" width="130" height="60" as="geometry" />
        </mxCell>
        <mxCell id="BZ6oP5d7F09XDa9WED_i-9" value="Điều kiện 2, ... (elif)" style="rhombus;whiteSpace=wrap;html=1;fillColor=#f8cecc;strokeColor=#b85450;" vertex="1" parent="1">
          <mxGeometry x="150" y="320" width="140" height="80" as="geometry" />
        </mxCell>
        <mxCell id="BZ6oP5d7F09XDa9WED_i-10" value="" style="endArrow=classic;html=1;rounded=0;exitX=1;exitY=0.5;exitDx=0;exitDy=0;" edge="1" parent="1" source="BZ6oP5d7F09XDa9WED_i-9">
          <mxGeometry width="50" height="50" relative="1" as="geometry">
            <mxPoint x="270" y="420" as="sourcePoint" />
            <mxPoint x="370" y="360" as="targetPoint" />
          </mxGeometry>
        </mxCell>
        <mxCell id="BZ6oP5d7F09XDa9WED_i-11" value="Thực hiện code ở đây nếu đúng điều kiện 2, ..." style="rounded=0;whiteSpace=wrap;html=1;fillColor=#d5e8d4;strokeColor=#82b366;" vertex="1" parent="1">
          <mxGeometry x="370" y="330" width="130" height="60" as="geometry" />
        </mxCell>
        <mxCell id="BZ6oP5d7F09XDa9WED_i-12" value="Còn lại (else)" style="rhombus;whiteSpace=wrap;html=1;fillColor=#f8cecc;strokeColor=#b85450;" vertex="1" parent="1">
          <mxGeometry x="150" y="430" width="140" height="80" as="geometry" />
        </mxCell>
        <mxCell id="BZ6oP5d7F09XDa9WED_i-13" value="" style="endArrow=classic;html=1;rounded=0;exitX=1;exitY=0.5;exitDx=0;exitDy=0;" edge="1" source="BZ6oP5d7F09XDa9WED_i-12" parent="1">
          <mxGeometry width="50" height="50" relative="1" as="geometry">
            <mxPoint x="270" y="530" as="sourcePoint" />
            <mxPoint x="370" y="470" as="targetPoint" />
          </mxGeometry>
        </mxCell>
        <mxCell id="BZ6oP5d7F09XDa9WED_i-14" value="Thực hiện code ở đây nếu không đúng bất cứ điều kiện nào trên" style="rounded=0;whiteSpace=wrap;html=1;fillColor=#e1d5e7;strokeColor=#9673a6;" vertex="1" parent="1">
          <mxGeometry x="370" y="440" width="130" height="60" as="geometry" />
        </mxCell>
        <mxCell id="BZ6oP5d7F09XDa9WED_i-15" value="" style="endArrow=classic;html=1;rounded=0;exitX=0.5;exitY=1;exitDx=0;exitDy=0;entryX=0.5;entryY=0;entryDx=0;entryDy=0;" edge="1" parent="1" source="BZ6oP5d7F09XDa9WED_i-2" target="BZ6oP5d7F09XDa9WED_i-9">
          <mxGeometry width="50" height="50" relative="1" as="geometry">
            <mxPoint x="230" y="170" as="sourcePoint" />
            <mxPoint x="228" y="217" as="targetPoint" />
          </mxGeometry>
        </mxCell>
        <mxCell id="BZ6oP5d7F09XDa9WED_i-16" value="" style="endArrow=classic;html=1;rounded=0;exitX=0.5;exitY=1;exitDx=0;exitDy=0;entryX=0.5;entryY=0;entryDx=0;entryDy=0;" edge="1" parent="1" source="BZ6oP5d7F09XDa9WED_i-9" target="BZ6oP5d7F09XDa9WED_i-12">
          <mxGeometry width="50" height="50" relative="1" as="geometry">
            <mxPoint x="230" y="300" as="sourcePoint" />
            <mxPoint x="230" y="330" as="targetPoint" />
          </mxGeometry>
        </mxCell>
        <mxCell id="BZ6oP5d7F09XDa9WED_i-20" value="" style="endArrow=classic;html=1;rounded=0;exitX=1;exitY=0.5;exitDx=0;exitDy=0;entryX=0;entryY=0;entryDx=0;entryDy=0;" edge="1" parent="1" source="BZ6oP5d7F09XDa9WED_i-8" target="BZ6oP5d7F09XDa9WED_i-3">
          <mxGeometry width="50" height="50" relative="1" as="geometry">
            <mxPoint x="170" y="420" as="sourcePoint" />
            <mxPoint x="220" y="370" as="targetPoint" />
          </mxGeometry>
        </mxCell>
        <mxCell id="BZ6oP5d7F09XDa9WED_i-21" value="" style="endArrow=classic;html=1;rounded=0;exitX=1;exitY=0.5;exitDx=0;exitDy=0;entryX=0;entryY=0.5;entryDx=0;entryDy=0;" edge="1" parent="1" source="BZ6oP5d7F09XDa9WED_i-11" target="BZ6oP5d7F09XDa9WED_i-3">
          <mxGeometry width="50" height="50" relative="1" as="geometry">
            <mxPoint x="510" y="260" as="sourcePoint" />
            <mxPoint x="608" y="342" as="targetPoint" />
          </mxGeometry>
        </mxCell>
        <mxCell id="BZ6oP5d7F09XDa9WED_i-22" value="" style="endArrow=classic;html=1;rounded=0;exitX=1;exitY=0.5;exitDx=0;exitDy=0;entryX=0;entryY=1;entryDx=0;entryDy=0;" edge="1" parent="1" source="BZ6oP5d7F09XDa9WED_i-14" target="BZ6oP5d7F09XDa9WED_i-3">
          <mxGeometry width="50" height="50" relative="1" as="geometry">
            <mxPoint x="510" y="370" as="sourcePoint" />
            <mxPoint x="590" y="370" as="targetPoint" />
          </mxGeometry>
        </mxCell>
      </root>
    </mxGraphModel>
  </diagram>
</mxfile>
